<svg id="visual" viewBox="0 0 900 600" width="900" height="600" xmlns="http://www.w3.org/2000/svg" xmlns:xlink="http://www.w3.org/1999/xlink" version="1.1"><rect x="0" y="0" width="900" height="600" fill="#FFFFFF"></rect><defs><linearGradient id="grad1_0" x1="33.3%" y1="0%" x2="100%" y2="100%"><stop offset="20%" stop-color="#d4cfd5" stop-opacity="1"></stop><stop offset="80%" stop-color="#d4cfd5" stop-opacity="1"></stop></linearGradient></defs><defs><linearGradient id="grad1_1" x1="33.3%" y1="0%" x2="100%" y2="100%"><stop offset="20%" stop-color="#d4cfd5" stop-opacity="1"></stop><stop offset="80%" stop-color="#e9e7ea" stop-opacity="1"></stop></linearGradient></defs><defs><linearGradient id="grad1_2" x1="33.3%" y1="0%" x2="100%" y2="100%"><stop offset="20%" stop-color="#ffffff" stop-opacity="1"></stop><stop offset="80%" stop-color="#e9e7ea" stop-opacity="1"></stop></linearGradient></defs><defs><linearGradient id="grad2_0" x1="0%" y1="0%" x2="66.7%" y2="100%"><stop offset="20%" stop-color="#d4cfd5" stop-opacity="1"></stop><stop offset="80%" stop-color="#d4cfd5" stop-opacity="1"></stop></linearGradient></defs><defs><linearGradient id="grad2_1" x1="0%" y1="0%" x2="66.7%" y2="100%"><stop offset="20%" stop-color="#e9e7ea" stop-opacity="1"></stop><stop offset="80%" stop-color="#d4cfd5" stop-opacity="1"></stop></linearGradient></defs><defs><linearGradient id="grad2_2" x1="0%" y1="0%" x2="66.7%" y2="100%"><stop offset="20%" stop-color="#e9e7ea" stop-opacity="1"></stop><stop offset="80%" stop-color="#ffffff" stop-opacity="1"></stop></linearGradient></defs><g transform="translate(900, 0)"><path d="M0 323C-41.9 322.7 -83.7 322.5 -129.7 313.2C-175.7 303.9 -225.9 285.7 -248.6 248.6C-271.3 211.5 -266.6 155.5 -267.9 111C-269.3 66.4 -276.6 33.2 -284 0L0 0Z" fill="#f4f3f4"></path><path d="M0 215.3C-27.9 215.2 -55.8 215 -86.5 208.8C-117.2 202.6 -150.6 190.4 -165.7 165.7C-180.9 141 -177.7 103.7 -178.6 74C-179.5 44.3 -184.4 22.1 -189.3 0L0 0Z" fill="#dfdbdf"></path><path d="M0 107.7C-14 107.6 -27.9 107.5 -43.2 104.4C-58.6 101.3 -75.3 95.2 -82.9 82.9C-90.4 70.5 -88.9 51.8 -89.3 37C-89.8 22.1 -92.2 11.1 -94.7 0L0 0Z" fill="#d4cfd5"></path></g><g transform="translate(0, 600)"><path d="M0 -325C36.8 -313.3 73.6 -301.6 121.7 -293.8C169.8 -286 229.3 -282 248.6 -248.6C267.8 -215.2 246.9 -152.3 255.9 -106C264.9 -59.7 304 -29.8 343 0L0 0Z" fill="#f4f3f4"></path><path d="M0 -216.7C24.5 -208.9 49 -201.1 81.1 -195.9C113.2 -190.6 152.9 -188 165.7 -165.7C178.6 -143.4 164.6 -101.6 170.6 -70.7C176.6 -39.8 202.6 -19.9 228.7 0L0 0Z" fill="#dfdbdf"></path><path d="M0 -108.3C12.3 -104.4 24.5 -100.5 40.6 -97.9C56.6 -95.3 76.4 -94 82.9 -82.9C89.3 -71.7 82.3 -50.8 85.3 -35.3C88.3 -19.9 101.3 -9.9 114.3 0L0 0Z" fill="#d4cfd5"></path></g></svg>